<svg xmlns="http://www.w3.org/2000/svg" viewBox="0 0 512 512"><!--! Font Awesome Free 6.0.0 by @fontawesome - https://fontawesome.com License - https://fontawesome.com/license/free (Icons: CC BY 4.0, Fonts: SIL OFL 1.1, Code: MIT License) Copyright 2022 Fonticons, Inc. --><path d="M184 0c30.9 0 56 25.1 56 56V456c0 30.9-25.1 56-56 56c-28.9 0-52.7-21.9-55.7-50.1c-5.2 1.4-10.7 2.1-16.3 2.1c-35.3 0-64-28.7-64-64c0-7.4 1.3-14.6 3.6-21.2C21.4 367.4 0 338.2 0 304c0-31.9 18.7-59.5 45.8-72.3C37.1 220.8 32 207 32 192c0-30.7 21.6-56.3 55.7-67.6c-5.2-12-8.3-25.3-8.3-39.2C79.4 38.2 119.2 0 166.4 0H184zM432.6 124.4c17.2 11.3 28.6 38.9 28.6 63.8c0 15-5.1 28.8-13.8 39.6c27.1 12.8 45.8 40.4 45.8 72.3c0 34.2-21.4 63.4-51.4 74.8c2.3 6.6 3.6 13.8 3.6 21.2c0 35.3-28.7 64-64 64c-5.6 0-11.1-.7-16.3-2.1C362.1 490.1 338.3 512 309.4 512c-30.9 0-56-25.1-56-56V56c0-30.9 25.1-56 56-56h17.1c47.2 0 87 38.2 87 85.2c0 13.9-3.1 27.2-8.3 39.2H432.6z"/></svg>
